# xmcd CD database file
#
# Track frame offsets:
#	150
#	15537
#	33622
#	46358
#	67500
#	83344
#	103372
#	109224
#	127244
#	135635
#	155431
#	171547
#
# Disc length: 2589 seconds
#
# Revision: 0
# Processed by: cddbd v1.5.2PL0 Copyright (c) Steve Scherf et al.
# Submitted via: CDex 1.51
#
DISCID=9f0a1b0c
DTITLE=Ino Hidefumi - Living Message
DYEAR=2008
DGENRE=Jazz
TTITLE0=Suicide Is Painless
TTITLE1=The Way Is The Way Is The Way
TTITLE2=Loving Message
TTITLE3=Living Message
TTITLE4=Blood Is Thicker Than Water
TTITLE5=Manai
TTITLE6=Theme Of 2 White Deers
TTITLE7=Sentimental Walk
TTITLE8=Escape into Hope
TTITLE9=Serendipity
TTITLE10=In a Perfect World
TTITLE11=Ainosanka
EXTD=YEAR: 2008
EXTT0=
EXTT1=
EXTT2=
EXTT3=
EXTT4=
EXTT5=
EXTT6=
EXTT7=
EXTT8=
EXTT9=
EXTT10=
EXTT11=
PLAYORDER=
